<svg xmlns="http://www.w3.org/2000/svg" viewBox="0 0 880 660" role="img" aria-labelledby="title desc">
<title id="title">Continuum conceptual model</title><desc id="desc">A stable VERA principal inside a persistent Continuum Computer, with model, process, and credential shown as replaceable surrounding components.</desc>
<defs><pattern id="grid" width="34" height="34" patternUnits="userSpaceOnUse"><path d="M34 0H0V34" fill="none" stroke="#242630" stroke-width=".6"/></pattern><linearGradient id="shell" x2="1" y2="1"><stop stop-color="#23242d"/><stop offset="1" stop-color="#111217"/></linearGradient><radialGradient id="well"><stop stop-color="#242533"/><stop offset="1" stop-color="#0b0c11"/></radialGradient></defs>
<rect width="880" height="660" fill="#0a0b10"/><rect width="880" height="660" fill="url(#grid)" opacity=".55"/>
<g fill="none" stroke="#494b58" stroke-width="1"><path d="M30 30h34M30 30v34M850 30h-34M850 30v34M30 630h34M30 630v-34M850 630h-34M850 630v-34"/></g>
<text x="52" y="68" fill="#c2c3cf" font-family="monospace" font-size="12" letter-spacing="3">CONTINUUM COMPUTER</text><text x="828" y="68" fill="#696b79" font-family="monospace" font-size="10" text-anchor="end" letter-spacing="1">PERSISTENT LOGICAL RESOURCE</text>
<path d="M198 166 445 93 688 166 688 466 445 548 198 466Z" fill="url(#shell)" stroke="#6e707e" stroke-width="1.2"/><path d="M198 166 445 246 688 166M445 246v302M198 466 445 387 688 466" fill="none" stroke="#484a57" stroke-width="1"/>
<path d="M263 218 445 162 624 218 624 416 445 472 263 416Z" fill="url(#well)" stroke="#999aaa" stroke-width="1.2"/><path d="M263 218 445 274 624 218M445 274v198" fill="none" stroke="#6f7080"/>
<g fill="none" stroke="#a8a9c8" stroke-width="1"><path d="M445 250v-34M445 414v37M385 330h-34M505 330h34"/><circle cx="445" cy="330" r="75" stroke-opacity=".32"/><circle cx="445" cy="330" r="51" stroke-opacity=".65"/><path d="M445 285 490 330 445 375 400 330Z" stroke-width="1.7"/></g>
<circle cx="445" cy="330" r="4" fill="#d9daef"/><text x="445" y="327" fill="#f0f0f4" font-family="Arial,sans-serif" font-size="20" text-anchor="middle" letter-spacing="2">VERA</text><text x="445" y="350" fill="#a7a7b8" font-family="monospace" font-size="9" text-anchor="middle" letter-spacing="2">STABLE PRINCIPAL</text>
<g fill="none" stroke="#606271"><path d="M198 300H86v47M688 300h106v47M445 548v40"/><circle cx="198" cy="300" r="3" fill="#acadc4"/><circle cx="688" cy="300" r="3" fill="#acadc4"/><circle cx="445" cy="548" r="3" fill="#acadc4"/></g>
<g fill="#c6c6d0" font-family="monospace" font-size="11" letter-spacing="2"><text x="86" y="371">MODEL</text><text x="794" y="371" text-anchor="end">PROCESS</text><text x="445" y="610" text-anchor="middle">CREDENTIAL</text></g>
<g fill="#777987" font-family="monospace" font-size="8" letter-spacing="1"><text x="86" y="386">REPLACEABLE</text><text x="794" y="386" text-anchor="end">REPLACEABLE</text><text x="445" y="626" text-anchor="middle">REPLACEABLE</text></g>
</svg>
